<?xml version="1.0" standalone="no"?>
<!DOCTYPE svg PUBLIC "-//W3C//DTD SVG 20010904//EN"
 "http://www.w3.org/TR/2001/REC-SVG-20010904/DTD/svg10.dtd">
<svg version="1.0" xmlns="http://www.w3.org/2000/svg"
 width="167.000000pt" height="250.000000pt" viewBox="0 0 167.000000 250.000000"
 preserveAspectRatio="xMidYMid meet">
<metadata>
Created by potrace 1.13, written by Peter Selinger 2001-2015
</metadata>
<g transform="translate(0.000000,250.000000) scale(0.100000,-0.100000)"
fill="#000000" stroke="none">
<path d="M587 2320 c-138 -24 -264 -125 -336 -270 -50 -103 -60 -167 -37 -238
32 -94 158 -186 317 -229 48 -13 104 -18 219 -18 133 0 165 3 226 22 188 59
279 190 240 344 -48 184 -210 348 -386 388 -52 12 -173 12 -243 1z m188 -150
c160 -23 266 -82 318 -177 42 -78 45 -131 13 -196 -59 -122 -191 -163 -425
-133 -211 28 -334 82 -367 162 -50 118 48 288 196 340 42 16 169 17 265 4z"/>
<path d="M499 2084 c-25 -7 -66 -32 -92 -54 -73 -64 -75 -126 -6 -204 28 -31
57 -51 97 -66 117 -45 327 -57 438 -25 56 16 118 74 130 120 16 65 -31 147
-105 184 -20 10 -74 28 -120 40 -101 25 -269 28 -342 5z"/>
<path d="M1501 1922 c-155 -77 -427 -367 -455 -484 -8 -35 15 -58 58 -58 78 0
332 220 448 388 41 59 81 150 74 167 -9 23 -65 17 -125 -13z"/>
<path d="M551 1489 c-109 -18 -145 -61 -186 -223 -42 -164 -57 -295 -44 -378
15 -98 63 -248 101 -311 40 -69 156 -213 212 -265 80 -74 124 -67 204 31 94
117 157 230 213 382 32 88 33 94 33 250 0 142 -3 171 -27 257 -43 158 -82 220
-159 253 -42 17 -252 19 -347 4z"/>
<path d="M208 1443 c-79 -85 -158 -384 -162 -608 -1 -109 15 -155 54 -155 36
0 99 116 145 269 69 230 72 521 5 521 -9 0 -28 -12 -42 -27z"/>
</g>
</svg>
