<svg width="167" height="250" xmlns="http://www.w3.org/2000/svg" preserveAspectRatio="xMidYMid meet">
 <metadata>Created by potrace 1.13, written by Peter Selinger 2001-2015</metadata>

 <g>
  <title>background</title>
  <rect fill="none" id="canvas_background" height="252" width="169" y="-1" x="-1"/>
 </g>
 <g>
  <title>Layer 1</title>
  <g id="svg_1" fill="#000000" transform="translate(0, 250) scale(0.1, -0.1)">
   <path stroke="#000" fill="#fff" id="svg_2" d="m587,2320c-138,-24 -264,-125 -336,-270c-50,-103 -60,-167 -37,-238c32,-94 158,-186 317,-229c48,-13 104,-18 219,-18c133,0 165,3 226,22c188,59 279,190 240,344c-48,184 -210,348 -386,388c-52,12 -173,12 -243,1zm188,-150c160,-23 266,-82 318,-177c42,-78 45,-131 13,-196c-59,-122 -191,-163 -425,-133c-211,28 -334,82 -367,162c-50,118 48,288 196,340c42,16 169,17 265,4z"/>
   <path stroke="#000" fill="#fff" id="svg_3" d="m499,2084c-25,-7 -66,-32 -92,-54c-73,-64 -75,-126 -6,-204c28,-31 57,-51 97,-66c117,-45 327,-57 438,-25c56,16 118,74 130,120c16,65 -31,147 -105,184c-20,10 -74,28 -120,40c-101,25 -269,28 -342,5z"/>
   <path stroke="#000" fill="#fff" id="svg_4" d="m1501,1922c-155,-77 -427,-367 -455,-484c-8,-35 15,-58 58,-58c78,0 332,220 448,388c41,59 81,150 74,167c-9,23 -65,17 -125,-13z"/>
   <path stroke="#000" fill="#fff" id="svg_5" d="m551,1489c-109,-18 -145,-61 -186,-223c-42,-164 -57,-295 -44,-378c15,-98 63,-248 101,-311c40,-69 156,-213 212,-265c80,-74 124,-67 204,31c94,117 157,230 213,382c32,88 33,94 33,250c0,142 -3,171 -27,257c-43,158 -82,220 -159,253c-42,17 -252,19 -347,4z"/>
   <path stroke="#000" fill="#fff" id="svg_6" d="m208,1443c-79,-85 -158,-384 -162,-608c-1,-109 15,-155 54,-155c36,0 99,116 145,269c69,230 72,521 5,521c-9,0 -28,-12 -42,-27z"/>
  </g>
 </g>
</svg>